<?xml version="1.0" standalone="no"?>
<!DOCTYPE svg PUBLIC "-//W3C//DTD SVG 20010904//EN"
 "http://www.w3.org/TR/2001/REC-SVG-20010904/DTD/svg10.dtd">
<svg version="1.0" xmlns="http://www.w3.org/2000/svg"
 width="550.000000pt" height="367.000000pt" viewBox="0 0 550.000000 367.000000"
 preserveAspectRatio="xMidYMid meet">

<g transform="translate(0.000000,367.000000) scale(0.100000,-0.100000)"
fill="#000000" stroke="none">
<path d="M523 3197 l-323 -162 -2 -240 c-1 -132 -2 -359 -3 -505 l0 -265 117
-5 c64 -3 119 -7 121 -10 3 -3 -50 -4 -119 -2 l-123 4 -1 -376 0 -376 74 0 73
0 89 79 c49 43 91 77 93 75 2 -2 2 -5 0 -7 -25 -17 -169 -151 -169 -157 0 -5
33 -44 74 -87 71 -75 78 -80 177 -117 122 -46 131 -52 105 -72 -23 -16 -21
-18 24 -38 19 -8 29 -15 22 -16 -7 0 -26 7 -42 15 -31 16 -41 45 -15 45 36 0
7 18 -88 54 -97 36 -106 42 -193 128 l-90 89 -65 -3 -64 -3 -3 -297 c-2 -293
-2 -298 18 -298 11 0 20 5 20 10 0 6 5 10 11 10 8 0 8 -5 -1 -15 -7 -8 -21
-15 -32 -15 -17 0 -18 -8 -16 -132 l3 -133 53 0 c28 1 250 2 491 3 l440 2 4
23 4 22 2 -22 1 -23 253 0 253 0 24 48 c21 40 26 66 31 172 l5 125 2 -118 c2
-108 0 -122 -23 -167 -14 -27 -25 -52 -25 -55 0 -3 85 -5 188 -5 l189 0 47 93
c26 50 44 81 40 67 -4 -14 -22 -53 -40 -88 -19 -34 -34 -65 -34 -67 0 -3 53
-5 117 -5 107 0 119 2 142 23 l26 22 -19 -22 -19 -23 271 0 271 0 4 33 4 32 1
-32 2 -33 535 0 c294 0 535 3 535 6 0 16 -32 62 -57 80 -15 12 -36 37 -46 55
l-18 34 22 -29 c13 -16 39 -45 60 -65 20 -20 39 -47 43 -59 6 -18 15 -22 45
-22 20 0 42 5 49 12 7 7 12 8 12 4 0 -9 47 40 68 70 7 11 6 5 -2 -12 -8 -17
-22 -36 -30 -43 -9 -8 -16 -18 -16 -22 0 -6 62 -8 141 -7 130 3 143 5 153 23
35 63 83 104 123 105 16 0 20 5 16 19 -4 14 14 38 64 86 37 37 68 72 68 77 0
5 8 16 19 23 10 8 15 18 12 24 -4 5 0 13 8 18 19 10 0 39 -29 44 -11 3 -20 11
-21 19 0 9 1 10 3 3 3 -7 13 -13 23 -13 11 0 24 -10 31 -21 8 -15 13 -18 19
-10 5 8 13 3 25 -16 10 -15 30 -40 45 -54 25 -26 27 -26 49 -10 l22 17 -20 18
-20 19 20 28 c21 30 19 30 85 -4 l32 -17 37 46 c32 38 35 48 24 58 -30 28
-419 336 -424 336 -2 0 -34 -44 -70 -97 l-65 -98 40 -23 c22 -13 40 -28 40
-33 0 -5 7 -9 15 -9 8 0 15 -5 15 -10 0 -7 -6 -7 -20 0 -11 6 -20 16 -20 22 0
6 -3 8 -6 5 -4 -4 -19 3 -35 13 l-27 20 -110 -82 c-61 -46 -113 -90 -115 -98
-4 -12 -5 -12 -6 2 0 9 8 23 20 31 19 14 16 19 -93 115 l-113 100 -68 -34
c-37 -19 -97 -41 -135 -48 -37 -8 -87 -24 -112 -35 -25 -11 -53 -21 -62 -21
-9 0 -41 -14 -70 -32 -29 -18 -54 -33 -56 -34 -10 -6 23 -48 51 -64 18 -11 27
-20 20 -20 -22 0 -75 54 -93 95 -19 45 -80 92 -101 79 -8 -4 -9 -3 -5 4 4 7
-4 22 -18 34 -13 13 -27 34 -31 48 -5 20 -2 18 15 -10 12 -19 46 -52 76 -74
31 -21 60 -48 66 -61 l10 -23 47 24 c89 47 85 35 45 174 -19 67 -33 124 -31
126 2 3 20 -53 40 -122 20 -70 38 -129 41 -131 2 -2 30 7 62 20 33 14 79 28
104 32 50 8 190 69 190 83 0 10 -33 42 -44 42 -4 0 -62 44 -129 98 -174 141
-155 134 -220 78 -42 -36 -54 -52 -51 -69 4 -20 4 -20 -6 2 -6 14 -7 27 -3 31
4 3 31 25 60 49 l52 42 -62 52 c-34 28 -65 55 -69 61 -7 10 -95 -11 -104 -25
-3 -5 -16 -9 -29 -9 -13 0 -27 -4 -30 -10 -3 -5 -17 -10 -30 -10 -15 0 -30
-11 -44 -32 -11 -18 -21 -28 -21 -23 0 6 9 21 20 35 29 37 26 52 -6 39 -15 -5
-29 -8 -31 -5 -2 2 10 8 26 14 38 13 41 27 5 18 -20 -5 -30 -2 -40 12 -15 22
-59 34 -124 34 l-45 0 50 8 c28 4 54 3 60 -1 5 -5 18 -9 30 -9 11 0 25 -8 32
-19 18 -29 69 -20 110 20 32 31 35 37 29 79 -5 38 -2 51 19 82 14 20 25 44 25
52 0 28 -157 23 -186 -7 -4 -4 -13 -2 -20 4 -9 7 -25 7 -54 -1 -23 -6 -44 -9
-46 -7 -3 2 16 10 42 16 33 9 50 9 59 1 8 -6 16 -7 19 -2 9 14 66 25 118 23
l47 -3 -20 38 c-21 42 -24 71 -9 94 7 11 8 6 4 -16 -7 -35 17 -101 41 -110 22
-9 18 -46 -10 -84 -21 -29 -24 -41 -19 -80 6 -42 3 -48 -35 -92 -23 -25 -41
-51 -41 -57 0 -16 35 -13 50 3 6 8 18 12 26 9 8 -3 20 0 27 6 7 5 38 17 68 24
30 8 111 43 180 78 l127 63 -10 28 c-9 24 -15 28 -49 28 -35 0 -39 3 -39 24 0
17 -9 29 -27 38 -18 8 -29 22 -31 38 -3 25 -22 38 -81 55 -12 4 -43 1 -67 -5
-50 -14 -61 -10 -44 17 11 17 11 17 6 -1 -5 -15 -3 -17 16 -12 62 18 86 17
131 -3 37 -17 47 -27 47 -46 0 -16 9 -28 28 -37 15 -7 28 -23 30 -36 3 -18 10
-22 42 -22 35 0 39 -3 45 -30 8 -35 7 -35 45 -15 18 9 31 26 35 46 9 39 17 32
9 -8 -5 -27 -21 -37 -175 -113 -93 -47 -169 -88 -169 -92 0 -6 179 -155 208
-172 7 -4 34 -3 60 3 26 5 74 15 107 22 33 6 78 20 100 31 22 11 48 24 57 29
27 14 35 10 14 -6 -11 -8 -26 -15 -35 -15 -8 0 -22 -6 -30 -14 -18 -16 -125
-46 -167 -46 -16 -1 -42 -6 -57 -13 l-28 -12 76 -60 c42 -33 92 -71 110 -85
19 -14 91 -76 161 -137 69 -62 130 -113 134 -113 4 0 40 24 79 53 58 43 85 73
150 169 l79 118 -153 135 c-85 74 -158 135 -164 135 -26 0 -83 -46 -96 -76 -8
-19 -20 -34 -27 -34 -9 0 -9 3 -2 8 6 4 17 20 25 37 10 20 42 46 104 82 50 30
90 57 90 62 0 4 -29 33 -65 64 -36 31 -76 72 -90 91 -17 24 -33 34 -50 34 -14
0 -41 7 -60 16 -19 9 -26 14 -15 10 58 -17 82 -15 140 13 33 16 71 36 85 45
14 9 38 20 53 24 36 8 44 29 22 54 -9 10 -15 25 -12 32 4 9 6 8 6 -3 1 -9 8
-22 16 -29 30 -25 18 -48 -35 -65 -27 -9 -52 -21 -56 -26 -3 -6 -31 -21 -61
-34 l-55 -25 32 -43 c17 -24 61 -68 98 -98 l68 -56 34 23 c33 21 123 46 108
29 -5 -5 -22 -10 -40 -12 -17 -2 -54 -18 -82 -36 -28 -19 -66 -42 -84 -53 -18
-10 -31 -22 -29 -27 1 -4 76 -72 166 -151 l163 -144 64 67 63 66 -26 22 c-19
15 -24 27 -20 43 3 13 -1 33 -10 47 -13 19 -22 23 -42 18 -29 -7 -27 -3 6 14
19 9 23 7 41 -23 11 -19 18 -43 16 -53 -3 -11 5 -28 20 -42 l25 -24 56 39 c31
21 58 41 60 44 2 4 6 40 9 80 8 96 13 110 40 110 29 0 61 34 52 56 -4 10 2 22
15 33 l22 17 -29 45 c-16 24 -32 48 -36 53 -9 13 -87 -35 -126 -78 -18 -20
-36 -36 -41 -36 -16 0 78 88 118 111 22 12 42 32 45 44 4 14 16 25 33 30 30 7
105 73 98 86 -3 4 -13 5 -24 2 -13 -3 -25 5 -41 27 -12 17 -32 35 -44 40 l-21
9 22 0 c14 1 29 -11 43 -34 12 -19 26 -35 30 -35 41 0 140 109 140 155 0 36
41 85 120 145 21 16 23 21 12 37 -6 10 -16 28 -22 41 -6 13 -18 22 -31 22 -38
0 -104 24 -117 42 -7 10 -24 18 -36 18 -19 0 -30 13 -55 65 -18 35 -36 67 -41
70 -4 3 -20 -15 -34 -40 -15 -25 -29 -45 -32 -45 -6 0 14 38 40 75 18 25 21
44 21 123 0 79 -3 95 -18 104 -12 6 -16 16 -11 30 10 33 -50 78 -103 78 -41 0
-41 0 -53 50 -8 32 -18 51 -30 55 -11 3 -22 15 -25 25 -6 19 -23 20 -638 20
-348 0 -797 3 -999 6 l-368 7 -3 -219 -2 -219 -3 218 -2 217 -254 0 -255 0 -4
-32 -4 -33 -1 33 -2 32 -310 0 -310 0 0 -88 c0 -76 -3 -91 -20 -107 -23 -21
-27 -11 -5 11 11 11 15 38 15 100 l0 84 -305 0 -305 0 0 -82 c0 -46 -4 -87 -8
-93 -4 -6 -67 -8 -172 -5 l-165 6 168 2 167 2 0 85 0 85 -65 0 -65 0 0 155 c0
85 -3 155 -7 154 -5 0 -153 -73 -330 -162z m2854 -244 c-2 -16 -4 -3 -4 27 0
30 2 43 4 28 2 -16 2 -40 0 -55z m690 -30 c-2 -21 -4 -4 -4 37 0 41 2 58 4 38
2 -21 2 -55 0 -75z m590 -175 c-1 -40 -3 -8 -3 72 0 80 2 112 3 73 2 -40 2
-106 0 -145z m-1270 95 c-2 -16 -4 -5 -4 22 0 28 2 40 4 28 2 -13 2 -35 0 -50z
m-3017 29 c0 -4 -18 -6 -40 -4 -22 2 -40 6 -40 8 0 2 18 4 40 4 22 0 40 -3 40
-8z m3707 -129 c-2 -21 -4 -4 -4 37 0 41 2 58 4 38 2 -21 2 -55 0 -75z m-680
-20 c-2 -16 -4 -3 -4 27 0 30 2 43 4 28 2 -16 2 -40 0 -55z m-1086 -209 l71
-84 67 -2 c48 -1 55 -3 24 -5 l-43 -4 0 -63 c0 -56 -5 -74 -46 -150 l-46 -86
20 -27 c31 -45 33 -51 21 -59 -7 -4 -9 -3 -6 3 3 5 -5 26 -18 46 -21 30 -32
36 -67 40 l-43 4 45 1 45 2 43 83 c37 71 42 90 42 145 0 55 -2 62 -20 62 -12
0 -46 31 -92 85 l-72 85 -93 0 -93 0 -2 -47 -1 -48 -4 43 c-4 39 -6 42 -34 42
-19 0 -29 5 -29 15 0 13 -29 15 -200 15 l-200 0 0 -115 0 -115 -41 6 c-36 6
-44 4 -60 -17 -10 -13 -19 -36 -19 -51 0 -22 5 -28 23 -29 22 -2 22 -2 0 -6
-12 -2 -27 -11 -33 -19 -7 -8 -18 -14 -24 -14 -6 0 -3 5 7 11 12 7 17 23 17
54 0 25 4 45 9 45 5 0 11 9 14 21 5 18 12 21 51 17 l46 -3 0 107 0 107 -37 4
c-21 2 73 4 210 5 222 2 247 0 247 -14 0 -14 7 -15 38 -10 20 3 74 6 120 6
l82 0 2 83 2 82 3 -84 4 -83 70 -84z m-1312 154 l-3 -53 109 -6 c76 -3 90 -6
48 -7 l-63 -2 0 -89 c0 -49 -3 -96 -6 -104 -3 -9 3 -16 15 -20 18 -4 21 -13
21 -65 0 -34 -4 -63 -8 -66 -5 -3 -6 22 -4 55 4 53 2 61 -14 65 -18 5 -19 14
-16 115 l4 110 -103 -6 c-57 -4 -122 -2 -144 3 -31 7 -17 8 56 4 l95 -5 -4 62
c-3 43 -1 61 8 61 8 0 11 -17 9 -52z m2408 -45 c-2 -16 -4 -5 -4 22 0 28 2 40
4 28 2 -13 2 -35 0 -50z m973 9 c159 2 286 0 281 -5 -6 -6 -413 -8 -613 -3
-48 1 -50 16 -3 16 31 0 35 3 37 28 1 24 2 23 5 -6 l4 -33 289 3z m-3057 -29
c-13 -2 -35 -2 -50 0 -16 2 -5 4 22 4 28 0 40 -2 28 -4z m120 0 c-7 -2 -21 -2
-30 0 -10 3 -4 5 12 5 17 0 24 -2 18 -5z m2564 -40 c-3 -10 -5 -2 -5 17 0 19
2 27 5 18 2 -10 2 -26 0 -35z m660 -60 c-2 -21 -4 -4 -4 37 0 41 2 58 4 38 2
-21 2 -55 0 -75z m-272 41 c-19 -42 -22 -60 -14 -70 8 -10 4 -26 -17 -64 -34
-63 -29 -75 50 -113 32 -15 57 -30 54 -32 -8 -8 -108 46 -125 69 l-17 23 -61
-19 c-33 -10 -76 -17 -95 -17 -30 1 -28 3 15 9 107 18 138 32 169 83 22 36 26
50 17 60 -8 11 -5 27 14 71 14 31 27 56 30 56 2 0 -6 -25 -20 -56z m-3601 31
c-4 -8 -10 -15 -15 -15 -5 0 -34 -24 -65 -53 l-56 -52 -1 -185 -1 -185 -5 180
c-5 146 -3 184 8 200 12 17 132 125 138 125 1 0 0 -7 -3 -15z m2591 -30 l-40
-34 -155 2 -155 1 156 3 156 3 28 30 c16 17 34 30 39 30 6 0 -7 -16 -29 -35z
m114 16 l-26 -6 28 -100 c28 -95 32 -102 91 -162 56 -55 71 -65 130 -80 63
-16 68 -16 86 0 10 9 21 17 25 17 4 0 -32 -40 -80 -90 -47 -49 -89 -90 -92
-90 -4 0 22 30 57 67 l63 68 -66 20 c-51 15 -80 33 -128 76 -62 56 -63 57 -91
160 -16 57 -36 110 -44 117 -13 10 -8 12 29 11 34 -1 38 -3 18 -8z m94 -8
c-13 -2 -33 -2 -45 0 -13 2 -3 4 22 4 25 0 35 -2 23 -4z m95 -10 c-10 -2 -28
-2 -40 0 -13 2 -5 4 17 4 22 1 32 -1 23 -4z m85 -10 c-13 -2 -33 -2 -45 0 -13
2 -3 4 22 4 25 0 35 -2 23 -4z m227 -13 c0 -11 -4 -20 -9 -20 -5 0 -7 9 -4 20
3 11 7 20 9 20 2 0 4 -9 4 -20z m-137 3 c-13 -2 -33 -2 -45 0 -13 2 -3 4 22 4
25 0 35 -2 23 -4z m-993 -19 c-45 -9 -107 -8 -104 1 3 6 29 8 62 6 31 -3 50
-6 42 -7z m1083 9 c-13 -2 -33 -2 -45 0 -13 2 -3 4 22 4 25 0 35 -2 23 -4z
m986 -64 c-6 -12 -28 -40 -49 -63 -20 -23 -40 -48 -43 -56 -4 -12 -6 -11 -6 2
-1 10 13 30 29 45 17 15 40 42 51 60 23 37 36 45 18 12z m-965 -23 c-3 -15 -8
-25 -11 -23 -2 3 -1 17 3 31 3 15 8 25 11 23 2 -3 1 -17 -3 -31z m693 -58 c-2
-18 -4 -4 -4 32 0 36 2 50 4 33 2 -18 2 -48 0 -65z m-4192 67 c6 -2 -35 -3
-90 -4 -55 0 -109 4 -120 8 -19 7 189 3 210 -4z m2326 -84 c15 -37 29 -52 50
-60 16 -5 29 -14 29 -20 0 -6 -14 -2 -31 7 -32 18 -96 122 -74 122 2 0 14 -22
26 -49z m1153 4 c-6 -35 -6 -35 32 -37 l39 -1 -44 -6 c-41 -5 -46 -9 -54 -41
-5 -19 -13 -39 -18 -44 -5 -5 3 26 16 70 14 43 25 82 25 87 0 4 2 7 5 7 3 0 3
-16 -1 -35z m-2597 -5 c3 -25 3 -25 -7 -2 -9 20 -16 22 -89 22 -79 0 -80 0
-84 -27 -4 -26 -4 -25 -6 5 l-1 33 93 -3 c90 -3 92 -4 94 -28z m848 -102 c4
-58 12 -106 19 -110 6 -4 -11 -7 -39 -6 -36 1 -41 2 -17 5 36 5 37 10 26 135
l-7 67 -71 4 -71 3 76 2 77 2 7 -102z m-532 -3 c68 -46 97 -71 97 -85 0 -11 7
-20 15 -20 8 0 15 -7 15 -15 0 -18 5 -18 31 -5 11 6 19 7 19 2 0 -11 -35 -22
-72 -22 -19 0 -32 -8 -42 -27 -18 -33 -21 -25 -4 12 7 16 19 25 35 25 12 0 23
5 23 10 0 6 -7 10 -15 10 -9 0 -15 9 -15 24 0 19 -19 36 -96 87 -82 54 -98 61
-115 51 -10 -7 -24 -12 -31 -12 -14 0 30 27 47 29 6 1 54 -28 108 -64z m3102
42 c-4 -15 -1 -28 9 -36 14 -12 14 -16 0 -43 -9 -17 -14 -39 -11 -49 5 -17 -1
-19 -68 -19 -41 0 -77 -4 -80 -10 -3 -5 -14 -10 -23 -10 -24 -1 -95 -107 -82
-123 46 -55 110 -141 110 -148 0 -4 -6 -12 -12 -16 -40 -25 -40 -39 -2 -112
21 -39 35 -73 33 -76 -3 -3 -21 -7 -40 -10 l-34 -5 32 10 c37 12 37 8 -17 113
l-25 49 28 24 29 25 -56 73 c-66 85 -90 100 -126 78 -14 -9 -31 -22 -37 -31
-8 -8 -13 -10 -13 -3 0 6 15 23 34 37 28 21 39 24 54 16 15 -8 23 -6 37 9 18
19 18 21 -3 43 -14 15 -22 36 -22 59 0 22 -7 41 -20 53 -11 10 -19 30 -19 44
1 21 2 22 6 6 3 -11 14 -31 24 -44 11 -14 19 -40 19 -62 0 -28 5 -41 20 -49
16 -9 23 -5 41 20 13 16 29 30 36 30 8 0 27 10 43 22 25 18 30 29 32 67 l1 46
4 -43 c3 -25 -1 -50 -8 -58 -10 -12 -3 -14 40 -14 39 0 51 4 51 15 0 9 7 29
15 44 13 26 13 30 0 41 -16 13 -20 42 -8 53 11 12 14 8 8 -16z m60 13 c-3 -5
-14 -10 -23 -9 -14 0 -13 2 3 9 27 11 27 11 20 0z m-3457 -37 c4 3 14 2 22 -4
13 -7 12 -9 -2 -9 -10 0 -20 1 -21 3 -2 1 -10 -3 -18 -10 -11 -9 -14 -7 -15
13 -2 20 1 22 12 14 7 -7 17 -9 22 -7z m-313 -12 c-6 -5 -21 -11 -35 -13 -15
-2 -26 -11 -28 -23 -2 -11 -12 -29 -22 -40 -10 -11 -20 -37 -24 -57 -4 -20
-10 -38 -15 -40 -4 -2 -4 -30 1 -63 4 -33 9 -67 9 -77 0 -9 14 -22 30 -28 16
-7 27 -15 24 -18 -2 -3 0 -12 7 -19 9 -11 9 -17 -3 -24 -9 -5 4 -7 35 -4 27 3
55 10 63 16 9 9 17 8 27 0 11 -10 16 -9 24 5 5 10 12 12 16 6 10 -16 78 -2
123 26 l43 27 0 79 c0 44 2 77 5 74 3 -2 5 -107 6 -232 l0 -227 -46 -67 c-26
-37 -75 -109 -110 -159 -35 -51 -66 -89 -69 -84 -4 5 -14 7 -24 5 -9 -2 -27 5
-40 15 -24 21 -57 101 -42 101 5 0 12 -15 16 -34 7 -42 36 -70 72 -72 24 -1
39 16 130 146 l102 148 0 146 c0 80 -4 146 -8 146 -5 0 -17 -9 -27 -20 -10
-11 -33 -22 -52 -26 -18 -3 -37 -14 -43 -23 -8 -14 -10 -14 -23 4 -13 16 -17
17 -31 6 -12 -10 -19 -11 -30 -2 -11 9 -15 9 -18 0 -5 -16 -120 -18 -125 -1
-3 6 4 12 14 13 10 0 13 3 6 6 -7 2 -13 10 -13 17 0 7 -11 18 -25 24 -14 7
-25 18 -24 24 1 7 0 20 -2 28 -2 8 -6 -61 -9 -155 l-6 -170 -2 217 c-2 197 -4
217 -19 221 -14 4 -13 5 4 6 24 1 43 28 43 59 0 11 8 30 19 43 10 13 20 33 22
44 3 13 15 22 34 26 46 10 50 10 40 0z m1887 -83 c18 -21 40 -38 49 -38 9 0
22 -7 29 -15 37 -45 -54 11 -95 58 -50 58 -55 65 -55 74 1 4 9 -3 20 -17 11
-14 34 -42 52 -62z m976 -115 c8 -14 22 -23 37 -23 25 0 25 -1 23 -77 l-2 -78
-3 73 c-4 67 -5 72 -27 72 -30 0 -56 56 -55 118 l2 47 6 -55 c4 -30 12 -65 19
-77z m-2020 110 c-10 -2 -28 -2 -40 0 -13 2 -5 4 17 4 22 1 32 -1 23 -4z m573
-39 c-17 -14 -31 -31 -31 -38 0 -7 -12 -23 -27 -37 l-28 -24 23 26 c12 14 22
30 22 36 0 15 64 84 68 73 2 -5 -10 -22 -27 -36z m2479 37 c0 -5 -9 -7 -20 -4
-11 3 -20 7 -20 9 0 2 9 4 20 4 11 0 20 -4 20 -9z m-2947 -8 c-13 -2 -35 -2
-50 0 -16 2 -5 4 22 4 28 0 40 -2 28 -4z m2865 0 c-16 -2 -40 -2 -55 0 -16 2
-3 4 27 4 30 0 43 -2 28 -4z m-2765 -10 c-13 -2 -35 -2 -50 0 -16 2 -5 4 22 4
28 0 40 -2 28 -4z m2834 -53 c-1 -27 -5 -50 -9 -50 -10 0 -10 27 -2 69 9 45
13 38 11 -19z m-1848 -66 l53 -65 81 5 c45 2 69 3 52 0 -85 -12 -95 -16 -107
-38 -48 -87 -182 -237 -230 -258 -49 -21 -49 -14 0 11 21 10 58 41 83 68 45
48 114 143 105 143 -3 0 -35 -11 -72 -25 -36 -14 -74 -25 -83 -25 -13 0 111
49 172 67 20 6 23 40 3 45 -12 3 -116 121 -116 133 0 11 8 3 59 -61z m-2421
38 c-21 -3 -42 -24 -95 -97 -37 -52 -69 -93 -71 -90 -2 2 7 19 21 36 l26 33
-21 30 -22 31 26 -23 25 -23 44 59 c37 51 46 58 69 53 l25 -6 -27 -3z m1932 3
c0 -9 10 -29 22 -45 16 -23 30 -30 55 -30 41 0 120 -49 115 -72 -2 -9 7 -33
20 -53 23 -36 23 -36 83 -31 52 4 54 4 20 -4 -73 -16 -83 -13 -112 33 -15 23
-26 49 -26 57 1 22 -63 60 -103 60 -23 0 -38 6 -46 20 -7 11 -18 20 -25 20 -7
0 -13 11 -13 24 0 21 -5 25 -37 29 l-38 4 43 1 c32 2 42 -2 42 -13z m915 9
c19 -5 20 -10 14 -67 -6 -61 -37 -153 -47 -143 -2 3 4 22 14 43 11 24 18 61
19 98 l0 60 -45 -2 c-39 -1 -41 -1 -15 7 17 4 32 8 35 9 3 0 14 -2 25 -5z
m-107 -25 c-22 -12 -22 -22 -2 -65 9 -19 14 -37 11 -40 -3 -3 -13 15 -22 40
-14 37 -23 46 -41 46 -19 0 -24 -5 -24 -24 0 -14 -4 -27 -9 -30 -4 -3 -5 9 -2
27 6 26 12 33 36 35 17 2 34 8 40 13 5 5 14 9 20 9 5 0 2 -5 -7 -11z m200 1
c18 0 23 -3 14 -9 -16 -10 -60 -2 -69 12 -4 7 0 8 11 4 10 -4 30 -7 44 -7z
m-1253 -40 c-3 -5 -13 -10 -21 -10 -19 0 -18 -17 5 -48 26 -38 25 -86 -2 -109
-22 -18 -22 -18 -6 2 18 22 24 85 8 85 -5 0 -9 6 -9 14 0 7 -7 19 -15 26 -21
17 -19 29 8 40 30 12 39 12 32 0z m1296 -71 c10 -5 19 -14 19 -20 0 -6 -7 -4
-15 4 -8 9 -19 17 -24 19 -5 1 -12 21 -15 43 l-5 40 10 -38 c6 -20 20 -42 30
-48z m68 -147 c-1 -13 -2 -12 -6 3 -3 11 -11 27 -18 35 -8 8 -17 29 -20 45 -6
23 -2 20 19 -18 14 -26 25 -56 25 -65z m311 5 c23 -12 27 -15 10 -11 -45 12
-53 9 -87 -34 -18 -24 -33 -39 -33 -33 0 6 15 28 34 48 27 31 33 45 30 73 -3
33 -3 33 4 5 5 -20 18 -36 42 -48z m-1730 16 c0 -16 12 -17 28 -3 7 5 6 2 -2
-7 -13 -14 -18 -14 -31 -3 -13 11 -18 10 -30 -6 -8 -10 -15 -22 -15 -26 0 -5
-7 -8 -15 -8 -8 0 -15 -9 -15 -20 0 -11 -4 -20 -9 -20 -5 0 -11 -9 -14 -20 -3
-11 -11 -20 -19 -19 -10 0 -10 2 0 6 6 2 12 13 12 24 0 10 5 19 10 19 6 0 10
6 10 14 0 7 11 21 25 30 14 9 23 21 20 26 -9 15 1 26 24 26 12 0 21 -6 21 -13z
m-1792 -348 c-5 -5 -8 44 -8 108 l0 117 -152 2 -153 2 153 3 152 4 2 47 c1 26
4 -25 8 -113 3 -88 2 -164 -2 -170z m1312 74 l115 -6 -118 1 -117 1 -17 -58
c-9 -32 -18 -56 -20 -53 -2 2 3 28 11 57 10 34 16 92 16 161 l0 108 -102 2
-103 2 105 5 105 6 5 -110 5 -110 115 -6z m330 130 c-7 -11 -19 -29 -28 -39
-51 -56 -51 -69 1 -71 27 -2 28 -3 7 -6 -18 -3 -34 -18 -54 -54 -15 -28 -34
-53 -42 -56 -8 -3 -14 -15 -14 -28 0 -30 -18 -63 -53 -97 -17 -18 -27 -38 -27
-57 0 -16 -4 -33 -10 -36 -5 -3 -10 -28 -10 -55 0 -39 -4 -50 -19 -55 -34 -10
-33 -34 2 -55 17 -11 37 -20 43 -20 6 0 23 -9 38 -21 l26 -20 0 21 c0 33 26
34 81 2 l52 -30 48 74 c67 102 102 173 96 195 -3 11 -1 19 4 19 28 0 -9 -92
-77 -194 -32 -48 -33 -53 -22 -89 14 -46 119 -135 182 -154 l41 -13 -40 6
c-22 3 -48 13 -59 22 -17 16 -19 16 -30 -2 -6 -11 -19 -28 -29 -38 -12 -13
-17 -28 -13 -43 3 -13 2 -27 -4 -30 -5 -3 -11 -16 -11 -28 -1 -18 -2 -18 -6
-4 -3 10 0 24 6 31 5 6 8 22 5 34 -4 15 3 33 25 59 l32 38 -48 42 c-26 23 -52
56 -59 75 -11 33 -11 33 -23 10 l-12 -23 -55 30 c-29 17 -58 31 -64 31 -5 0
-10 -13 -10 -30 0 -35 -6 -37 -35 -10 -36 34 -118 71 -127 57 -13 -21 -9 3 7
32 8 16 21 31 30 34 10 5 15 20 15 51 0 25 5 48 10 51 6 3 10 21 10 40 0 24 8
40 28 57 30 25 52 68 52 99 0 11 7 22 15 25 25 10 57 76 52 108 -3 25 4 42 37
83 44 57 53 65 36 32z m970 11 c-14 -5 -51 -16 -82 -25 l-58 -16 0 -60 c0 -56
1 -59 25 -59 14 0 25 -3 25 -7 0 -5 -37 -29 -83 -54 -51 -29 -82 -53 -82 -63
0 -9 -26 -36 -58 -61 -31 -25 -57 -52 -57 -61 0 -9 -27 -44 -61 -79 -53 -55
-59 -66 -50 -84 6 -11 11 -26 10 -33 0 -7 -5 -1 -11 15 -8 23 -15 27 -50 27
-42 0 -87 31 -88 60 0 8 10 0 23 -17 18 -27 29 -33 59 -33 32 0 43 7 97 68 33
37 61 75 61 84 0 9 26 35 59 58 42 29 57 46 54 59 -3 13 15 28 77 61 69 37 78
45 61 52 -19 7 -21 15 -21 85 0 43 4 72 8 66 6 -10 23 -8 72 6 65 19 117 27
70 11z m-230 -34 c0 -2 -7 -7 -16 -10 -8 -3 -12 -2 -9 4 6 10 25 14 25 6z
m-108 -55 c-75 -40 -105 -67 -97 -88 2 -6 -26 -42 -62 -78 -63 -65 -65 -68
-59 -109 5 -37 2 -45 -30 -81 -20 -22 -31 -31 -26 -20 6 11 20 29 32 40 17 16
20 26 15 57 -6 32 -2 45 21 76 15 20 42 50 61 65 45 38 45 73 1 80 -18 3 -49
10 -68 16 l-35 10 35 -5 c19 -3 49 -7 65 -10 22 -3 52 7 115 40 47 25 90 45
95 45 6 0 -23 -17 -63 -38z m1785 -39 c16 4 24 -3 41 -39 11 -25 14 -39 7 -33
-7 6 -16 22 -19 35 -4 16 -14 25 -25 25 -31 0 -51 11 -51 28 0 13 2 13 14 -3
8 -11 20 -16 33 -13z m-2198 -13 l80 -32 34 22 c49 30 59 26 12 -6 l-39 -27
-61 23 c-33 13 -67 25 -75 28 -9 2 -35 -13 -60 -36 l-45 -41 23 -18 c21 -16
22 -24 17 -77 -5 -58 -5 -58 15 -40 20 18 20 18 19 -16 0 -20 -3 -28 -7 -19
-4 8 -14 15 -22 15 -12 0 -15 13 -15 56 0 41 -5 62 -19 78 -18 19 -18 22 -2
46 9 14 28 31 42 37 35 16 30 26 -18 31 l-43 4 42 1 c27 1 71 -9 122 -29z
m719 -36 c-10 -2 -26 -2 -35 0 -10 3 -2 5 17 5 19 0 27 -2 18 -5z m-2121 -35
c13 -12 23 -25 23 -30 0 -5 -11 4 -24 19 -20 22 -27 26 -37 16 -7 -7 -24 -13
-38 -12 -24 0 -23 2 9 14 19 7 37 14 39 14 3 1 15 -9 28 -21z m-184 5 c-35 -2
-91 -2 -125 0 -35 2 -7 3 62 3 69 0 97 -1 63 -3z m107 -64 c-14 -10 -31 -24
-37 -29 -9 -7 -13 -7 -13 -1 0 6 14 17 30 26 17 9 30 21 30 27 0 6 3 8 8 4 4
-4 -4 -16 -18 -27z m743 -67 c-14 -34 -28 -60 -30 -58 -2 2 8 31 23 65 15 34
28 60 30 58 2 -2 -8 -31 -23 -65z m1627 58 c-8 -5 -24 -9 -35 -9 -16 1 -16 2
5 9 35 11 48 11 30 0z m-83 -17 c-16 -3 -31 -11 -34 -19 -3 -8 -29 -26 -57
-41 -28 -14 -64 -35 -81 -47 -16 -13 -65 -42 -107 -65 -56 -30 -78 -48 -78
-62 0 -10 -4 -19 -9 -19 -4 0 -29 -18 -55 -41 -33 -30 -45 -47 -43 -63 6 -32
18 -57 38 -77 16 -16 21 -17 48 -3 17 8 33 20 37 25 13 21 126 99 136 93 5 -3
3 -13 -6 -23 -24 -26 -19 -34 8 -16 17 11 26 13 31 5 4 -6 20 -9 38 -6 l32 6
-28 -11 c-21 -8 -32 -8 -40 0 -7 7 -20 5 -44 -10 -36 -22 -42 -16 -17 19 25
36 2 25 -68 -33 -36 -30 -71 -55 -76 -55 -5 0 -15 -7 -22 -15 -7 -8 -17 -12
-22 -9 -6 4 -14 0 -19 -7 -6 -9 -9 -10 -9 -2 0 6 5 15 10 18 14 9 12 25 -2 25
-16 0 -40 49 -31 63 3 5 0 8 -8 5 -22 -7 -85 -96 -131 -183 -22 -44 -50 -93
-62 -110 -11 -16 -33 -63 -48 -105 -32 -88 -38 -82 -7 8 11 34 32 79 46 99
l25 37 -31 28 c-36 32 -26 38 12 8 l26 -21 31 61 c17 34 46 83 65 109 19 27
35 56 35 65 0 10 4 15 9 11 6 -3 22 11 38 30 15 20 43 45 61 57 19 11 37 31
42 43 5 14 37 39 77 61 37 21 93 54 125 74 31 20 70 42 86 49 17 7 32 21 35
32 4 14 13 19 39 18 31 -2 31 -2 5 -6z m-2294 -53 c21 -10 27 -20 26 -44 -2
-28 -2 -28 -6 -6 -6 33 -21 50 -44 50 -11 0 -19 5 -19 11 0 5 3 9 8 7 4 -2 19
-10 35 -18z m2450 -45 c9 -18 9 -19 -6 -6 -10 7 -17 23 -16 35 0 14 2 16 6 6
3 -8 10 -24 16 -35z m-2142 -65 c4 0 11 5 14 10 10 17 32 11 64 -16 17 -14 35
-23 40 -20 5 4 12 2 16 -4 3 -5 26 -15 51 -21 25 -7 44 -17 44 -25 0 -8 7 -11
18 -8 14 5 15 4 2 -5 -20 -15 -30 -14 -30 3 0 15 -21 26 -50 26 -9 0 -23 7
-30 15 -9 10 -17 12 -23 6 -6 -6 -17 -1 -31 13 -25 28 -62 41 -71 26 -3 -5
-10 -10 -15 -10 -12 0 -70 50 -70 61 0 5 14 -4 31 -21 18 -16 36 -30 40 -30z
m395 13 c-8 -15 -15 -25 -16 -21 0 12 23 58 27 54 3 -2 -2 -17 -11 -33z m1758
5 c-9 -14 -12 -19 -50 -65 -19 -24 -22 -34 -12 -37 40 -13 42 -14 23 -15 -38
-2 -47 19 -22 50 12 15 30 39 40 53 18 26 35 37 21 14z m-2466 -76 c-28 -29
-44 -89 -50 -181 -1 -24 -8 -35 -25 -42 -13 -5 -23 -17 -23 -28 0 -11 -4 -22
-8 -25 -4 -2 -7 8 -6 22 0 19 8 30 26 36 22 8 25 15 25 55 0 25 5 59 12 74 6
16 11 35 11 44 0 16 52 83 59 76 3 -2 -7 -16 -21 -31z m676 -7 c-9 -21 -27
-55 -40 -74 -13 -20 -24 -39 -24 -43 0 -5 24 -8 54 -8 39 0 57 -5 67 -17 11
-15 11 -16 -1 -5 -8 7 -40 12 -75 12 l-61 0 -27 -52 c-49 -92 -89 -159 -93
-155 -5 5 31 75 49 96 8 9 27 40 42 70 15 30 43 79 63 109 27 41 34 57 26 70
-16 24 -32 25 -39 3 -3 -12 -10 -21 -15 -21 -4 0 -3 11 3 25 14 29 24 31 48 9
16 -14 18 -14 24 6 4 12 9 20 11 17 2 -2 -3 -21 -12 -42z m1812 -60 c9 -14 15
-27 13 -29 -2 -2 -24 -6 -48 -9 -29 -4 -40 -2 -30 4 7 5 24 9 37 9 26 0 30 25
5 39 -10 6 -12 11 -6 11 7 0 20 -11 29 -25z m-118 -52 c-15 -2 -42 -2 -60 0
-18 2 -6 4 27 4 33 0 48 -2 33 -4z m-1388 -7 c0 -2 -8 -10 -17 -17 -16 -13
-17 -12 -4 4 13 16 21 21 21 13z m1278 -3 c-10 -2 -28 -2 -40 0 -13 2 -5 4 17
4 22 1 32 -1 23 -4z m-1305 -55 c-10 -45 -55 -179 -59 -175 -2 2 7 37 21 77
14 40 25 75 25 77 0 2 -28 4 -62 5 l-63 2 60 3 c39 3 63 9 68 19 12 21 16 17
10 -8z m-158 -7 c2 -4 -9 -5 -26 -3 -16 2 -29 8 -29 12 0 9 48 1 55 -9z m1705
-45 c-5 -13 -7 -26 -4 -29 3 -2 -2 -7 -10 -10 -12 -5 -13 -1 -6 18 5 14 7 25
4 25 -3 0 -2 5 1 10 13 20 24 10 15 -14z m1210 -37 c0 -6 -4 -7 -10 -4 -5 3
-10 11 -10 16 0 6 5 7 10 4 6 -3 10 -11 10 -16z m-1265 -9 c-3 -5 -15 -10 -27
-10 -11 0 -41 -19 -67 -42 l-48 -43 30 -27 c16 -16 35 -28 42 -28 17 0 68
-105 62 -127 -4 -14 -5 -14 -6 3 -2 31 -50 114 -67 114 -7 0 -18 9 -24 19 -16
31 -48 36 -74 12 -20 -19 -122 -49 -132 -38 -2 2 21 9 51 15 49 10 66 21 132
81 43 40 87 72 102 74 14 2 27 5 29 6 2 0 0 -3 -3 -9z m-525 -47 c0 -6 2 -20
5 -30 3 -10 0 -6 -7 8 -7 15 -24 36 -38 48 l-25 21 32 -17 c18 -10 33 -23 33
-30z m1810 37 c0 -5 -5 -10 -11 -10 -5 0 -7 5 -4 10 3 6 8 10 11 10 2 0 4 -4
4 -10z m-3825 -30 c-20 -3 -26 -8 -17 -13 6 -5 12 -17 12 -28 0 -16 -5 -19
-20 -14 -19 6 -27 -5 -13 -19 12 -12 13 -46 1 -46 -6 0 -22 -9 -34 -21 -18
-17 -26 -19 -43 -10 -12 7 -21 8 -21 4 0 -4 -3 -18 -6 -30 -5 -18 -2 -23 13
-23 32 0 54 -33 58 -90 2 -29 1 -50 -2 -46 -3 3 -7 26 -9 51 -3 54 -17 75 -50
75 -16 0 -24 6 -24 18 0 21 -56 57 -65 42 -3 -5 -11 -10 -18 -10 -7 0 -5 7 5
16 15 15 19 15 48 -2 30 -18 32 -18 41 -1 8 14 14 15 30 7 16 -9 25 -7 47 12
28 24 32 35 19 56 -11 16 2 35 19 28 19 -7 18 12 -1 30 -24 24 -18 30 23 25
l37 -5 -30 -6z m340 10 c4 -6 24 -22 46 -35 32 -21 81 -85 65 -85 -3 0 -11 11
-18 24 -14 25 -101 96 -118 96 -13 0 -48 -20 -75 -41 -23 -18 -68 -32 -59 -18
3 5 13 9 22 9 9 1 33 14 52 30 34 30 73 39 85 20z m-217 -20 c23 -11 42 -26
42 -33 0 -8 -3 -9 -8 -1 -9 14 -69 41 -102 47 l-25 4 26 2 c14 0 44 -8 67 -19z
m414 -20 c-26 -22 -127 -188 -143 -237 -10 -30 -8 -37 15 -68 14 -18 26 -36
26 -38 0 -3 -12 -12 -27 -21 l-28 -17 24 21 23 20 -26 26 c-14 15 -26 32 -26
39 0 59 144 295 180 294 3 0 -5 -8 -18 -19z m1125 14 c-3 -3 -12 -4 -19 -1 -8
3 -5 6 6 6 11 1 17 -2 13 -5z m-677 -43 c0 -5 -7 -11 -15 -15 -15 -5 -20 5 -8
17 9 10 23 9 23 -2z m1108 -102 c16 -15 20 -14 49 8 20 15 41 23 55 20 22 -4
22 -4 -2 -6 -14 -1 -41 -15 -60 -31 -31 -25 -36 -35 -41 -92 -7 -60 -7 -60 -4
14 2 59 -1 80 -12 89 -15 13 -53 82 -53 96 0 4 12 -12 26 -37 14 -25 33 -52
42 -61z m1332 11 c-12 -23 -23 -63 -25 -89 -2 -42 -28 -111 -40 -111 -6 0 6
32 17 47 6 7 11 35 13 62 2 27 13 68 24 90 12 22 22 53 22 68 l2 28 4 -27 c2
-15 -5 -45 -17 -68z m-525 70 c15 0 28 -9 35 -22 10 -21 10 -21 -3 -5 -8 9
-25 17 -38 17 -13 0 -31 5 -39 11 -12 9 -12 10 3 5 10 -3 29 -6 42 -6z m-3225
-53 c19 -2 44 -9 55 -15 19 -11 18 -12 -5 -7 -61 14 -136 22 -150 18 -16 -5
-80 -33 -92 -40 -5 -2 -8 -2 -8 1 0 6 69 39 100 49 8 2 26 3 40 1 14 -2 41 -6
60 -7z m3341 -92 c11 -4 18 -9 15 -12 -11 -12 -57 29 -71 63 -22 54 -17 55 10
2 14 -25 34 -50 46 -53z m-1592 36 c-6 -18 -13 -30 -15 -28 -2 2 1 18 7 36 6
18 13 30 15 28 2 -2 -1 -18 -7 -36z m-28 -68 c-12 -20 -14 -14 -5 12 4 9 9 14
11 11 3 -2 0 -13 -6 -23z m1656 -5 c-3 -8 -6 -5 -6 6 -1 11 2 17 5 13 3 -3 4
-12 1 -19z m-522 -74 c-8 -21 -14 -31 -15 -21 0 10 5 28 11 39 8 14 8 23 0 31
-6 6 -11 16 -11 21 0 6 6 1 14 -10 13 -18 13 -26 1 -60z m-914 -26 c-17 -29
-31 -50 -31 -46 0 12 54 107 59 103 2 -2 -11 -28 -28 -57z m-1676 -19 c-10
-15 -25 -10 -19 6 4 8 10 12 15 9 5 -3 7 -10 4 -15z m-9 -50 c19 -22 19 -22
-3 -8 -13 8 -23 17 -23 21 0 12 6 9 26 -13z"/>
<path d="M4815 1349 c-59 -41 -181 -158 -173 -164 2 -1 93 -74 203 -161 110
-88 215 -170 233 -183 33 -23 35 -31 17 -73 -7 -17 -5 -17 21 -3 16 8 34 15
41 15 7 0 26 14 43 30 22 21 40 30 65 30 25 0 35 5 40 21 5 16 -7 35 -59 89
-36 37 -66 73 -66 79 0 6 -11 16 -23 20 -13 5 -32 27 -41 48 -27 61 -33 68
-51 65 -35 -7 -55 27 -55 94 0 56 -3 65 -25 80 -14 9 -32 13 -45 9 -27 -9 -49
10 -43 35 8 29 -4 24 -82 -31z"/>
<path d="M5008 795 c-36 -48 -44 -52 -67 -31 -47 40 -114 18 -75 -25 19 -21
18 -21 -9 -43 -26 -21 -26 -23 -11 -45 13 -18 15 -30 7 -55 -14 -45 4 -73 33
-51 10 8 30 15 43 15 21 0 23 3 17 35 -8 39 7 75 31 75 8 0 31 14 50 30 18 17
37 30 41 30 4 0 13 19 20 42 12 38 12 44 -4 55 -29 21 -41 16 -76 -32z"/>
<path d="M4711 736 c-5 -13 -16 -26 -25 -29 -9 -4 -13 -13 -10 -21 3 -9 -6
-21 -25 -32 -17 -10 -34 -26 -37 -36 -3 -10 -11 -18 -17 -19 -7 0 -23 -13 -35
-30 -31 -38 -19 -54 46 -63 26 -3 58 -13 70 -22 21 -14 24 -14 53 10 23 20 42
26 76 26 39 0 44 2 38 18 -9 21 -9 28 0 68 6 27 2 37 -35 75 -23 24 -46 52
-51 62 -14 24 -38 21 -48 -7z"/>
</g>
</svg>
